<svg viewBox="0 0 128 128" xmlns="http://www.w3.org/2000/svg">
  <ellipse cx="64" cy="118" rx="28" ry="6" fill="#00000066"/>
  <path d="M94 90 C100 70, 88 46, 64 40 C58 46, 62 70, 70 92 Z" fill="#2e1d13"/>
  <path d="M64 40 C40 46, 28 70, 34 90 C58 100, 70 100, 70 92 Z" fill="#1c120c"/>
  <path d="M44 60 C44 46, 52 40, 64 40 C76 40, 84 44, 84 54 L84 80 C84 88, 76 92, 64 92 C52 92, 44 88, 44 80 Z" fill="#2f6a44"/>
  <ellipse cx="70" cy="54" rx="10" ry="12" fill="#e6b98f"/>
  <path d="M60 52 C72 48, 78 54, 72 62 C64 60, 60 58, 60 52 Z" fill="#00000055"/>
  <ellipse cx="32" cy="74" rx="14" ry="18" fill="#6d4c2f"/>
  <ellipse cx="32" cy="74" rx="6" ry="8" fill="#9aa3a8"/>
  <rect x="62" y="30" width="6" height="24" fill="#9aa3a8"/>
</svg>