<svg viewBox="0 0 128 128" xmlns="http://www.w3.org/2000/svg">
  <ellipse cx="64" cy="118" rx="28" ry="6" fill="#00000066"/>
  <path d="M34 90 C28 70, 40 46, 64 40 C70 46, 66 70, 58 92 Z" fill="#2e1d13"/>
  <path d="M64 40 C88 46, 100 70, 94 90 C70 100, 58 100, 58 92 Z" fill="#1c120c"/>
  <path d="M50 54 C50 44, 58 40, 70 40 C76 40, 84 46, 84 60 L84 80 C84 88, 76 92, 64 92 C52 92, 50 88, 50 80 Z" fill="#2f6a44"/>
  <ellipse cx="58" cy="54" rx="10" ry="12" fill="#e6b98f"/>
  <path d="M48 52 C60 48, 66 54, 60 62 C52 60, 48 58, 48 52 Z" fill="#00000055"/>
  <ellipse cx="96" cy="74" rx="14" ry="18" fill="#6d4c2f"/>
  <ellipse cx="96" cy="74" rx="6" ry="8" fill="#9aa3a8"/>
  <rect x="54" y="30" width="6" height="24" fill="#9aa3a8"/>
</svg>