<svg xmlns="http://www.w3.org/2000/svg" width="128" height="32" viewBox="0 0 128 32">
  <!-- Frame 1 -->
  <g transform="translate(0,0)">
    <rect x="12" y="6" width="8" height="8" fill="#f2c29b"/>
    <rect x="10" y="14" width="12" height="10" fill="#2f8f2f"/>
    <rect x="8" y="16" width="4" height="8" fill="#7a4b2b"/>
    <rect x="20" y="16" width="4" height="8" fill="#7a4b2b"/>
  </g>
  <!-- Frame 2 -->
  <g transform="translate(32,0)">
    <rect x="12" y="6" width="8" height="8" fill="#f2c29b"/>
    <rect x="10" y="14" width="12" height="10" fill="#329932"/>
    <rect x="8" y="17" width="4" height="7" fill="#7a4b2b"/>
    <rect x="20" y="17" width="4" height="7" fill="#7a4b2b"/>
  </g>
  <!-- Frame 3 -->
  <g transform="translate(64,0)">
    <rect x="12" y="6" width="8" height="8" fill="#f2c29b"/>
    <rect x="10" y="14" width="12" height="10" fill="#2f8f2f"/>
    <rect x="8" y="16" width="4" height="8" fill="#7a4b2b"/>
    <rect x="20" y="16" width="4" height="8" fill="#7a4b2b"/>
  </g>
  <!-- Frame 4 -->
  <g transform="translate(96,0)">
    <rect x="12" y="6" width="8" height="8" fill="#f2c29b"/>
    <rect x="10" y="14" width="12" height="10" fill="#329932"/>
    <rect x="8" y="17" width="4" height="7" fill="#7a4b2b"/>
    <rect x="20" y="17" width="4" height="7" fill="#7a4b2b"/>
  </g>
</svg>